<svg width="18" height="14" viewBox="0 0 18 14" fill="none" xmlns="http://www.w3.org/2000/svg">
<path d="M12.3562 11.9496C12.2395 12.0662 12.0507 12.0668 11.9333 11.951L11.473 11.4967C11.3545 11.3797 11.3539 11.1887 11.4716 11.071L14.5696 7.97298C14.6956 7.84699 14.6064 7.63156 14.4282 7.63156H1.11445C0.948768 7.63156 0.814453 7.49725 0.814453 7.33156V6.66397C0.814453 6.49828 0.948768 6.36397 1.11445 6.36397H14.4271C14.6055 6.36397 14.6946 6.14822 14.5683 6.02232L11.4709 2.93465C11.3534 2.81755 11.3533 2.62734 11.4706 2.51006L11.9333 2.04734C12.0504 1.93018 12.2404 1.93018 12.3575 2.04734L17.0958 6.78563C17.213 6.90279 17.213 7.09274 17.0958 7.2099L12.3562 11.9496Z" fill="#00D652"/>
</svg>
