<svg width="227" height="398" viewBox="0 0 227 398" fill="none" xmlns="http://www.w3.org/2000/svg">
<path d="M95.0736 477.046C95.0736 471.859 94.7838 458.915 93.9444 448.906C92.5933 432.794 92.935 428.427 92.1212 418.24C91.5931 411.629 91.1094 405.065 90.8657 385.356C90.7588 376.712 87.5514 361.821 85.9052 353.446C85.1498 349.602 83.2785 343.87 80.2706 337.718C77.3088 331.66 73.8085 328.458 70.7484 324.489C68.0553 320.996 61.2895 313.84 56.3094 307.498C51.6722 301.593 47.9574 290.026 44.8191 284.118C42.3794 279.525 39.6527 274.224 36.9947 268.231C33.907 261.27 32.7415 257.002 27.1844 244.127C22.5389 233.365 24.8528 211.885 23.1765 202.761C22.1876 197.377 18.4696 192.842 16.0638 187.704C13.197 181.581 12.0952 175.839 10.5031 171.702C8.01746 165.244 8.73241 158.943 8.20307 132.648C8.00324 122.721 5.81458 115.986 4.75406 110.285C3.94676 105.945 3.24273 102.011 3.02866 97.9206L3.02525 97.8558C2.97 96.8086 2.91406 95.7482 3.92429 95.1669C10.4035 91.4383 18.0108 93.3802 22.2173 92.385C23.2713 92.1357 24.4804 92.1232 25.4752 92.5259C29.4785 94.1464 30.9289 98.6834 34.2918 104.544C37.0783 109.401 38.4931 117.512 40.2678 126.094C42.1677 135.28 41.9497 139.854 44.0498 146.096C45.6605 150.884 48.6072 154.919 50.1551 159.085C51.6968 163.234 57.3364 164.755 59.431 168.135C60.1018 169.217 60.3732 170.506 60.3918 171.903M60.3918 171.903C60.4289 174.685 59.4619 177.893 58.6516 180.735M60.3918 171.903C60.087 173.26 59.7688 174.656 59.431 176.099C59.1118 177.463 58.8546 179.102 58.6516 180.735M60.3918 171.903C61.1963 168.319 61.9073 165.008 62.638 161.821C63.9991 155.886 65.0579 147.44 65.4583 142.078C66.0457 134.212 65.3323 118.37 63.7509 110.375C62.3612 103.349 60.385 96.875 59.2598 91.8233C58.2174 87.1435 56.4493 81.1914 55.6791 75.0582C54.2877 63.9783 52.2807 57.5594 51.0749 53.3205C49.9072 49.2156 48.2974 44.0214 46.8272 39.3619C44.8991 33.2511 44.1588 28.9848 43.4029 24.8787C41.9671 17.0796 43.6814 7.5914 45.2408 6.53564C48.3752 4.41359 52.2225 3.41433 56.0276 3.02585C60.8239 2.53616 63.8573 9.12254 66.0815 12.7806C68.4453 16.6681 70.1059 22.3558 72.4001 27.4962C74.3614 31.8907 76.0786 37.0356 78.0443 40.9159C79.9166 44.6122 80.7524 48.3513 82.3438 53.7716C84.0939 59.7325 87.4332 66.2197 89.3762 71.6769C90.9092 75.9828 92.7255 81.9932 94.3655 87.0134C96.3783 93.1747 98.6551 99.3223 100.375 104.326C101.887 108.724 102.378 117.433 102.87 123.915C103.515 132.419 103.904 145.342 105.108 147.763M58.6516 180.735C58.3512 181.789 58.0723 182.792 57.874 183.705C57.5778 185.07 57.9616 186.93 58.0371 187.827M58.6516 180.735C58.2906 183.639 58.1006 186.527 58.0371 187.827M58.0371 187.827C58.0482 187.959 58.0527 188.07 58.0473 188.156C58.0063 188.805 57.9999 188.589 58.0371 187.827ZM94.7713 84.1898C96.4677 83.5186 101.513 81.7518 105.463 81.1252C109.913 80.4191 116.548 80.2872 121.741 82.1554C125.491 83.5042 127.139 88.4168 129.565 93.3125C134.46 103.19 136.552 107.829 138.178 111.812C139.406 115.881 139.884 127.993 140.126 144.042C140.284 149.809 140.513 150.75 140.62 151.499M138.945 103.77C140.013 103.88 143.782 104.995 147.648 106.567C151.536 108.147 154.905 111.183 158.313 114.378C161.483 117.35 164.007 123.469 165.77 128.332C167.145 132.122 166.991 136.37 167.635 140.369C168.471 145.558 168.373 151.485 169.022 155.71C170.087 159.754 170.581 162.949 170.947 164.804C171.147 165.738 171.375 166.657 171.61 167.817M170.771 135.246C173.015 135.246 180.952 135.063 186.188 135.004C190.123 134.96 193.181 140.549 195.724 144.301C198.188 147.936 197.456 153.611 200.2 160.065C202.137 164.62 202.651 169.409 204.04 173.57C205.429 177.73 205.752 182.061 206.188 188.721C206.568 194.541 205.726 206.292 205.814 222.045C205.845 227.533 203.316 231.237 200.446 236.643C197.426 242.333 197.148 246.651 195.918 252.484C194.145 260.891 192.267 264.499 190.624 268.621C188.148 274.833 187.443 279.52 186.354 283.982C185.348 288.099 184.708 292.301 184.228 296.131C183.482 302.087 184.112 310.134 184.464 314.346C184.797 318.336 187.083 323.583 189.457 329.03C192.081 335.051 193.506 338.813 194.711 343.416C196.219 349.175 196.951 357.231 198.645 365.914C201.235 379.189 203.734 386.532 204.591 390.745C205.369 394.569 206.956 398.763 208.456 402.865C210.662 408.895 212.924 418.838 214.568 425.077C215.946 430.305 216.701 436.635 217.412 441.274C218.046 445.408 218.519 449.636 219.334 456.144C220.458 465.118 221.834 469.496 222.449 473.514C222.61 474.455 222.765 475.377 222.94 476.346C223.115 477.316 223.307 478.306 224 481.583" stroke="#00D652" stroke-width="6" stroke-linecap="round"/>
</svg>
